<svg width="46" height="46" viewBox="0 0 46 46" fill="none" xmlns="http://www.w3.org/2000/svg">
<path d="M30.6654 40.25V36.4167C30.6654 34.3833 29.8576 32.4333 28.4199 30.9955C26.9821 29.5577 25.032 28.75 22.9987 28.75H11.4987C9.46537 28.75 7.51533 29.5577 6.07755 30.9955C4.63977 32.4333 3.83203 34.3833 3.83203 36.4167V40.25" stroke="#F16F24" stroke-width="2" stroke-linecap="round" stroke-linejoin="round"/>
<path d="M30.668 5.99512C32.312 6.42133 33.768 7.38137 34.8074 8.72457C35.8467 10.0678 36.4107 11.7181 36.4107 13.4165C36.4107 15.1148 35.8467 16.7651 34.8074 18.1083C33.768 19.4515 32.312 20.4116 30.668 20.8378" stroke="#F16F24" stroke-width="2" stroke-linecap="round" stroke-linejoin="round"/>
<path d="M42.168 40.2499V36.4165C42.1667 34.7178 41.6013 33.0677 40.5606 31.7251C39.5199 30.3826 38.0627 29.4237 36.418 28.999" stroke="#F16F24" stroke-width="2" stroke-linecap="round" stroke-linejoin="round"/>
<path d="M17.2487 21.0833C21.4829 21.0833 24.9154 17.6508 24.9154 13.4167C24.9154 9.18248 21.4829 5.75 17.2487 5.75C13.0145 5.75 9.58203 9.18248 9.58203 13.4167C9.58203 17.6508 13.0145 21.0833 17.2487 21.0833Z" stroke="#F16F24" stroke-width="2" stroke-linecap="round" stroke-linejoin="round"/>
</svg>
