<svg width="46" height="46" viewBox="0 0 46 46" fill="none" xmlns="http://www.w3.org/2000/svg">
<path d="M7.37929 16.5214C7.09954 15.2613 7.14249 13.9509 7.50418 12.7118C7.86586 11.4726 8.53456 10.3449 9.44827 9.43308C10.362 8.52128 11.4911 7.85494 12.731 7.49585C13.9709 7.13677 15.2814 7.09655 16.541 7.37895C17.2342 6.29469 18.1893 5.4024 19.3181 4.78433C20.4469 4.16625 21.7132 3.84229 23.0001 3.84229C24.2871 3.84229 25.5533 4.16625 26.6821 4.78433C27.811 5.4024 28.766 6.29469 29.4593 7.37895C30.7208 7.09533 32.0335 7.13536 33.2754 7.49531C34.5172 7.85527 35.6479 8.52347 36.5622 9.43774C37.4764 10.352 38.1446 11.4827 38.5046 12.7245C38.8645 13.9664 38.9046 15.2791 38.621 16.5406C39.7052 17.2339 40.5975 18.189 41.2156 19.3178C41.8336 20.4466 42.1576 21.7128 42.1576 22.9998C42.1576 24.2867 41.8336 25.553 41.2156 26.6818C40.5975 27.8106 39.7052 28.7657 38.621 29.4589C38.9033 30.7185 38.8631 32.029 38.5041 33.2689C38.145 34.5088 37.4786 35.6379 36.5668 36.5516C35.655 37.4653 34.5273 38.134 33.2881 38.4957C32.049 38.8574 30.7386 38.9004 29.4785 38.6206C28.7861 39.709 27.8303 40.6051 26.6995 41.226C25.5688 41.8468 24.2997 42.1723 23.0097 42.1723C21.7197 42.1723 20.4506 41.8468 19.3199 41.226C18.1891 40.6051 17.2333 39.709 16.541 38.6206C15.2814 38.903 13.9709 38.8628 12.731 38.5037C11.4911 38.1446 10.362 37.4783 9.44827 36.5665C8.53456 35.6547 7.86586 34.5269 7.50418 33.2878C7.14249 32.0487 7.09954 30.7383 7.37929 29.4781C6.28671 28.7867 5.38675 27.8301 4.76314 26.6974C4.13952 25.5648 3.8125 24.2928 3.8125 22.9998C3.8125 21.7068 4.13952 20.4348 4.76314 19.3021C5.38675 18.1694 6.28671 17.2129 7.37929 16.5214Z" stroke="#F16F24" stroke-width="2" stroke-linecap="round" stroke-linejoin="round"/>
<path d="M17.25 22.9998L21.0833 26.8332L28.75 19.1665" stroke="#F16F24" stroke-width="2" stroke-linecap="round" stroke-linejoin="round"/>
</svg>
