<svg width="43" height="43" viewBox="0 0 43 43" fill="none" xmlns="http://www.w3.org/2000/svg">
<path fill-rule="evenodd" clip-rule="evenodd" d="M18.6405 40.1406C8.35842 40.1406 0 31.7821 0 21.5C0 11.2179 8.35842 2.85938 18.6405 2.85938C23.8166 2.85938 28.6429 4.92282 32.2101 8.69984C32.3906 8.90319 32.3706 9.13094 32.2553 9.2965L33.3494 10.7265C33.5579 10.6202 33.829 10.6422 33.9939 10.9031C36.1622 14.0157 37.2814 17.6879 37.2814 21.4999C37.2812 31.7821 28.9227 40.1406 18.6405 40.1406ZM18.6405 36.2937C10.4918 36.2937 3.84696 29.6487 3.84696 21.5C3.84696 13.3513 10.4918 6.70633 18.6405 6.70633C22.5225 6.70633 26.1948 8.21012 28.9576 10.9032C29.1797 11.1224 29.1451 11.3839 29.0006 11.5599L30.3856 13.2789C30.5969 13.1553 30.889 13.1672 31.0559 13.4212C37.3432 22.989 30.52 36.2937 18.6405 36.2937Z" fill="white"/>
<path fill-rule="evenodd" clip-rule="evenodd" d="M19.1338 31.0825C18.924 31.0825 18.7491 30.9427 18.6792 30.7678C18.6443 30.6979 15.6365 22.9338 10.9851 19.9961C10.0757 19.4365 9.37642 18.8419 9.65615 17.5129C9.93588 16.2189 10.8103 15.4845 12.384 15.1348C15.1818 14.5402 18.1894 18.8769 19.3087 20.6606C23.2255 14.96 31.0595 6.00678 42.4607 4.9576C43.0108 4.89312 43.2141 5.7084 42.7056 5.93685C42.5307 6.00678 26.2331 13.4562 19.6233 30.8028C19.5185 30.9776 19.3436 31.0825 19.1338 31.0825Z" fill="#00B42C"/>
</svg>
